#Comment line ignore any data following # character 
#Hierarchical Translation and Rotation (.htr) file 
[Header]	
#Header keywords are followed by a single value 
FileType HTR		#Single word string
DataType HTRS		#Translation followed by rotation and scale data
FileVersion 1		#integer
NumSegments 84		#integer
NumFrames 2		#integer
DataFrameRate 30		#integer, data frame rate in this file
EulerRotationOrder ZYX
CalibrationUnits mm
RotationUnits Degrees
GlobalAxisofGravity Y
BoneLengthAxis Y
ScaleFactor 1.00
[SegmentNames&Hierarchy]
#CHILD	PARENT
MASTER GLOBAL
root MASTER
chest root
L_mid_tent01 root
R_mid_tent01 root
spine01 root
Bip01_Neck chest
L_humerus chest
R_humerus chest
weapon_bone chest
Bip01_Head Bip01_Neck
eye_left_bone Bip01_Head
eye_right_bone Bip01_Head
L_forearm L_humerus
L_front_hand L_forearm
L_weapon_bone L_forearm
L_front_hand01_01 L_front_hand
L_front_hand02_01 L_front_hand
L_front_hand03_01 L_front_hand
L_front_hand01_02 L_front_hand01_01
L_front_hand02_02 L_front_hand02_01
L_front_hand03_02 L_front_hand03_01
R_forearm R_humerus
R_front_hand R_forearm
R_weapon_bone R_forearm
R_front_hand01_01 R_front_hand
R_front_hand02_01 R_front_hand
R_front_hand03_01 R_front_hand
R_front_hand01_02 R_front_hand01_01
R_front_hand02_02 R_front_hand02_01
R_front_hand03_02 R_front_hand03_01
null_rope01_connect L_mid_tent01
Rope1_Seg01 null_rope01_connect
Rope1_Seg02 Rope1_Seg01
Rope1_Seg03 Rope1_Seg02
Rope1_Seg04 Rope1_Seg03
Rope1_Seg05 Rope1_Seg04
Rope1_Seg06 Rope1_Seg05
Rope1_Seg07 Rope1_Seg06
Rope1_Seg09 Rope1_Seg07
L_mid_hand01 Rope1_Seg09
L_mid_hand02 Rope1_Seg09
L_mid_hand03 Rope1_Seg09
null_rope02_connect R_mid_tent01
Rope2_Seg01 null_rope02_connect
Rope2_Seg02 Rope2_Seg01
Rope2_Seg03 Rope2_Seg02
Rope2_Seg04 Rope2_Seg03
Rope2_Seg05 Rope2_Seg04
Rope2_Seg06 Rope2_Seg05
Rope2_Seg07 Rope2_Seg06
Rope2_Seg09 Rope2_Seg07
R_mid_hand01 Rope2_Seg09
R_mid_hand02 Rope2_Seg09
R_mid_hand03 Rope2_Seg09
spine02 spine01
spine03 spine02
pelvis spine03
null_rope03_connect pelvis
null_rope04_connect pelvis
Rope3_Seg01 null_rope03_connect
Rope3_Seg02 Rope3_Seg01
Rope3_Seg03 Rope3_Seg02
Rope3_Seg04 Rope3_Seg03
Rope3_Seg05 Rope3_Seg04
Rope3_Seg06 Rope3_Seg05
Rope3_Seg07 Rope3_Seg06
Rope3_Seg08 Rope3_Seg07
Rope3_Seg09 Rope3_Seg08
R_rear_hand01 Rope3_Seg09
R_rear_hand02 Rope3_Seg09
R_rear_hand03 Rope3_Seg09
Rope4_Seg01 null_rope04_connect
Rope4_Seg02 Rope4_Seg01
Rope4_Seg03 Rope4_Seg02
Rope4_Seg04 Rope4_Seg03
Rope4_Seg05 Rope4_Seg04
Rope4_Seg06 Rope4_Seg05
Rope4_Seg07 Rope4_Seg06
Rope4_Seg08 Rope4_Seg07
Rope4_Seg09 Rope4_Seg08
L_rear_hand01 Rope4_Seg09
L_rear_hand02 Rope4_Seg09
L_rear_hand03 Rope4_Seg09
[BasePosition]
#SegmentName Tx, Ty, Tz, Rx, Ry, Rz, BoneLength
MASTER 0.000000 0.000000 0.000000 -90.000000 0.000000 0.000000 10.000000 
root 0.000000 0.000000 0.000000 0.000000 0.000000 0.000000 10.000000 
chest 0.000000 0.000000 0.000000 0.000000 0.000000 0.000000 10.000000 
L_mid_tent01 0.000000 0.000000 0.000000 0.000000 0.000000 0.000000 10.000000 
R_mid_tent01 0.000000 0.000000 0.000000 0.000000 0.000000 0.000000 10.000000 
spine01 0.000000 0.000000 0.000000 0.000000 0.000000 0.000000 10.000000 
Bip01_Neck 0.000000 0.000000 0.000000 0.000000 0.000000 0.000000 10.000000 
L_humerus 0.000000 0.000000 0.000000 0.000000 0.000000 0.000000 10.000000 
R_humerus 0.000000 0.000000 0.000000 0.000000 0.000000 0.000000 10.000000 
weapon_bone 0.000000 0.000000 0.000000 0.000000 0.000000 0.000000 10.000000 
Bip01_Head 0.000000 0.000000 0.000000 0.000000 0.000000 0.000000 10.000000 
eye_left_bone 0.000000 0.000000 0.000000 0.000000 0.000000 0.000000 10.000000 
eye_right_bone 0.000000 0.000000 0.000000 0.000000 0.000000 0.000000 10.000000 
L_forearm 0.000000 0.000000 0.000000 0.000000 0.000000 0.000000 10.000000 
L_front_hand 0.000000 0.000000 0.000000 0.000000 0.000000 0.000000 10.000000 
L_weapon_bone 0.000000 0.000000 0.000000 0.000000 0.000000 0.000000 10.000000 
L_front_hand01_01 0.000000 0.000000 0.000000 0.000000 0.000000 0.000000 10.000000 
L_front_hand02_01 0.000000 0.000000 0.000000 0.000000 0.000000 0.000000 10.000000 
L_front_hand03_01 0.000000 0.000000 0.000000 0.000000 0.000000 0.000000 10.000000 
L_front_hand01_02 0.000000 0.000000 0.000000 0.000000 0.000000 0.000000 10.000000 
L_front_hand02_02 0.000000 0.000000 0.000000 0.000000 0.000000 0.000000 10.000000 
L_front_hand03_02 0.000000 0.000000 0.000000 0.000000 0.000000 0.000000 10.000000 
R_forearm 0.000000 0.000000 0.000000 0.000000 0.000000 0.000000 10.000000 
R_front_hand 0.000000 0.000000 0.000000 0.000000 0.000000 0.000000 10.000000 
R_weapon_bone 0.000000 0.000000 0.000000 0.000000 0.000000 0.000000 10.000000 
R_front_hand01_01 0.000000 0.000000 0.000000 0.000000 0.000000 0.000000 10.000000 
R_front_hand02_01 0.000000 0.000000 0.000000 0.000000 0.000000 0.000000 10.000000 
R_front_hand03_01 0.000000 0.000000 0.000000 0.000000 0.000000 0.000000 10.000000 
R_front_hand01_02 0.000000 0.000000 0.000000 0.000000 0.000000 0.000000 10.000000 
R_front_hand02_02 0.000000 0.000000 0.000000 0.000000 0.000000 0.000000 10.000000 
R_front_hand03_02 0.000000 0.000000 0.000000 0.000000 0.000000 0.000000 10.000000 
null_rope01_connect 0.000000 0.000000 0.000000 0.000000 0.000000 0.000000 10.000000 
Rope1_Seg01 0.000000 0.000000 0.000000 0.000000 0.000000 0.000000 10.000000 
Rope1_Seg02 0.000000 0.000000 0.000000 0.000000 0.000000 0.000000 10.000000 
Rope1_Seg03 0.000000 0.000000 0.000000 0.000000 0.000000 0.000000 10.000000 
Rope1_Seg04 0.000000 0.000000 0.000000 0.000000 0.000000 0.000000 10.000000 
Rope1_Seg05 0.000000 0.000000 0.000000 0.000000 0.000000 0.000000 10.000000 
Rope1_Seg06 0.000000 0.000000 0.000000 0.000000 0.000000 0.000000 10.000000 
Rope1_Seg07 0.000000 0.000000 0.000000 0.000000 0.000000 0.000000 10.000000 
Rope1_Seg09 0.000000 0.000000 0.000000 0.000000 0.000000 0.000000 10.000000 
L_mid_hand01 0.000000 0.000000 0.000000 0.000000 0.000000 0.000000 10.000000 
L_mid_hand02 0.000000 0.000000 0.000000 0.000000 0.000000 0.000000 10.000000 
L_mid_hand03 0.000000 0.000000 0.000000 0.000000 0.000000 0.000000 10.000000 
null_rope02_connect 0.000000 0.000000 0.000000 0.000000 0.000000 0.000000 10.000000 
Rope2_Seg01 0.000000 0.000000 0.000000 0.000000 0.000000 0.000000 10.000000 
Rope2_Seg02 0.000000 0.000000 0.000000 0.000000 0.000000 0.000000 10.000000 
Rope2_Seg03 0.000000 0.000000 0.000000 0.000000 0.000000 0.000000 10.000000 
Rope2_Seg04 0.000000 0.000000 0.000000 0.000000 0.000000 0.000000 10.000000 
Rope2_Seg05 0.000000 0.000000 0.000000 0.000000 0.000000 0.000000 10.000000 
Rope2_Seg06 0.000000 0.000000 0.000000 0.000000 0.000000 0.000000 10.000000 
Rope2_Seg07 0.000000 0.000000 0.000000 0.000000 0.000000 0.000000 10.000000 
Rope2_Seg09 0.000000 0.000000 0.000000 0.000000 0.000000 0.000000 10.000000 
R_mid_hand01 0.000000 0.000000 0.000000 0.000000 0.000000 0.000000 10.000000 
R_mid_hand02 0.000000 0.000000 0.000000 0.000000 0.000000 0.000000 10.000000 
R_mid_hand03 0.000000 0.000000 0.000000 0.000000 0.000000 0.000000 10.000000 
spine02 0.000000 0.000000 0.000000 0.000000 0.000000 0.000000 10.000000 
spine03 0.000000 0.000000 0.000000 0.000000 0.000000 0.000000 10.000000 
pelvis 0.000000 0.000000 0.000000 0.000000 0.000000 0.000000 10.000000 
null_rope03_connect 0.000000 0.000000 0.000000 0.000000 0.000000 0.000000 10.000000 
null_rope04_connect 0.000000 0.000000 0.000000 0.000000 0.000000 0.000000 10.000000 
Rope3_Seg01 0.000000 0.000000 0.000000 0.000000 0.000000 0.000000 10.000000 
Rope3_Seg02 0.000000 0.000000 0.000000 0.000000 0.000000 0.000000 10.000000 
Rope3_Seg03 0.000000 0.000000 0.000000 0.000000 0.000000 0.000000 10.000000 
Rope3_Seg04 0.000000 0.000000 0.000000 0.000000 0.000000 0.000000 10.000000 
Rope3_Seg05 0.000000 0.000000 0.000000 0.000000 0.000000 0.000000 10.000000 
Rope3_Seg06 0.000000 0.000000 0.000000 0.000000 0.000000 0.000000 10.000000 
Rope3_Seg07 0.000000 0.000000 0.000000 0.000000 0.000000 0.000000 10.000000 
Rope3_Seg08 0.000000 0.000000 0.000000 0.000000 0.000000 0.000000 10.000000 
Rope3_Seg09 0.000000 0.000000 0.000000 0.000000 0.000000 0.000000 10.000000 
R_rear_hand01 0.000000 0.000000 0.000000 0.000000 0.000000 0.000000 10.000000 
R_rear_hand02 0.000000 0.000000 0.000000 0.000000 0.000000 0.000000 10.000000 
R_rear_hand03 0.000000 0.000000 0.000000 0.000000 0.000000 0.000000 10.000000 
Rope4_Seg01 0.000000 0.000000 0.000000 0.000000 0.000000 0.000000 10.000000 
Rope4_Seg02 0.000000 0.000000 0.000000 0.000000 0.000000 0.000000 10.000000 
Rope4_Seg03 0.000000 0.000000 0.000000 0.000000 0.000000 0.000000 10.000000 
Rope4_Seg04 0.000000 0.000000 0.000000 0.000000 0.000000 0.000000 10.000000 
Rope4_Seg05 0.000000 0.000000 0.000000 0.000000 0.000000 0.000000 10.000000 
Rope4_Seg06 0.000000 0.000000 0.000000 0.000000 0.000000 0.000000 10.000000 
Rope4_Seg07 0.000000 0.000000 0.000000 0.000000 0.000000 0.000000 10.000000 
Rope4_Seg08 0.000000 0.000000 0.000000 0.000000 0.000000 0.000000 10.000000 
Rope4_Seg09 0.000000 0.000000 0.000000 0.000000 0.000000 0.000000 10.000000 
L_rear_hand01 0.000000 0.000000 0.000000 0.000000 0.000000 0.000000 10.000000 
L_rear_hand02 0.000000 0.000000 0.000000 0.000000 0.000000 0.000000 10.000000 
L_rear_hand03 0.000000 0.000000 0.000000 0.000000 0.000000 0.000000 10.000000 
#Beginning of Data. Separated by tabs
#Fr	Tx	Ty	Tz	Rx	Ry	Rz	SF
[MASTER]
21 -126.646027 2240.991943 862.823364 0.001660 0.001660 0.001660 2404.692871
22 -124.739433 2258.295898 747.279663 0.001660 0.001660 0.001660 2381.992432
[root]
21 -8.322077 323.280640 1052.737061 -96.640175 -27.930183 -87.458366 1101.287964
22 -5.410633 371.458588 1079.271851 -96.613945 -31.934303 -87.166496 1141.419434
[chest]
21 -84.512650 -34.090519 0.000000 -4.960190 -8.497111 144.103790 91.129311
22 -84.512650 -34.090519 0.000000 -6.757353 -14.892442 145.561615 91.129311
[L_mid_tent01]
21 27.299154 22.179029 -249.918701 -0.275567 18.106585 80.917374 252.381683
22 27.299158 22.179026 -249.918701 -0.293774 18.192976 80.669502 252.381683
[R_mid_tent01]
21 23.228794 24.509907 226.238495 135.255554 -37.483109 67.045975 228.744751
22 23.228794 24.509907 226.238495 132.265839 -39.015484 67.289635 228.744751
[spine01]
21 -0.361383 -0.195265 0.000000 -0.000001 -0.000007 22.052340 0.410763
22 -0.361383 -0.195265 0.000000 -0.000001 -0.000007 22.052340 0.410763
[Bip01_Neck]
21 165.484543 71.581718 0.000119 176.643677 -1.657967 43.431911 180.302734
22 165.484543 71.581718 0.000119 176.643677 -1.657967 43.431911 180.302734
[L_humerus]
21 -13.983130 -135.272980 -120.471481 170.723663 26.744102 -94.144707 181.680161
22 -13.983130 -135.272980 -120.471481 171.391357 19.015043 -92.693840 181.680161
[R_humerus]
21 -13.983309 -135.273102 125.287651 -176.531662 -10.380587 -86.639633 184.909012
22 -13.983309 -135.273102 125.287651 -176.707550 -6.015012 -86.234161 184.909012
[weapon_bone]
21 235.964890 -300.705902 0.000000 0.000000 -89.951546 -128.212341 382.234833
22 235.964890 -300.705902 0.000000 0.000000 -89.951546 -128.212341 382.234833
[Bip01_Head]
21 213.372925 185.870285 9.132094 4.962490 2.797846 -43.898743 283.123932
22 213.383118 185.845215 9.505716 4.962490 2.797846 -43.898743 283.127472
[eye_left_bone]
21 -24.626970 125.451866 -64.772606 0.000000 -90.000000 -99.840431 143.318359
22 -24.626970 125.451866 -64.772606 0.000000 -90.000000 -99.840431 143.318359
[eye_right_bone]
21 -24.626970 125.451866 64.327362 0.000000 -89.965736 80.156380 143.117676
22 -24.626970 125.451866 64.327362 0.000000 -89.965736 80.156380 143.117676
[L_forearm]
21 322.776093 0.000000 -0.000119 0.000359 -0.002320 -107.597969 322.776093
22 322.776093 0.000000 -0.000119 0.000347 -0.002321 -107.026939 322.776093
[L_front_hand]
21 241.149185 -0.042021 -3.300071 -88.913055 -1.837842 -27.423204 241.171753
22 241.149185 -0.042021 -3.300071 -115.937027 -1.837357 -27.421503 241.171753
[L_weapon_bone]
21 156.183838 0.000000 0.000000 0.000014 0.000007 0.000001 156.183838
22 156.183838 0.000000 0.000000 0.000014 0.000007 0.000001 156.183838
[L_front_hand01_01]
21 86.095154 20.947098 -0.655860 -0.359433 -0.482613 74.612556 88.609184
22 86.095154 20.947098 -0.655860 -0.365735 -0.477812 75.179466 88.609184
[L_front_hand02_01]
21 86.935165 -11.437475 24.513514 153.214294 -59.547077 -59.995953 91.046425
22 86.935165 -11.437475 24.513514 154.083481 -59.794327 -61.001266 91.046425
[L_front_hand03_01]
21 86.637497 -14.123976 -20.424902 -152.821930 57.770218 -61.413536 90.126129
22 86.637497 -14.123976 -20.424902 -153.626984 58.028236 -62.364826 90.126129
[L_front_hand01_02]
21 71.020905 -0.000179 0.000030 0.000263 -0.002332 -102.879211 71.020905
22 71.020905 -0.000179 0.000030 0.000254 -0.002333 -102.442802 71.020905
[L_front_hand02_02]
21 71.020927 -0.000119 0.000060 0.000263 -0.002332 -102.879211 71.020927
22 71.020927 -0.000119 0.000060 0.000254 -0.002333 -102.442802 71.020927
[L_front_hand03_02]
21 71.020905 -0.000060 0.000060 0.000263 -0.002332 -102.879211 71.020905
22 71.020905 -0.000060 0.000060 0.000254 -0.002333 -102.442802 71.020905
[R_forearm]
21 322.776428 -0.000060 0.000030 0.203915 0.055699 -106.626328 322.776428
22 322.776428 -0.000060 0.000030 0.204194 0.054665 -106.045502 322.776428
[R_front_hand]
21 238.847015 -0.006795 2.210259 20.151335 -10.645175 -26.314598 238.857239
22 238.847015 -0.006795 2.210259 58.428062 -10.645446 -26.313444 238.857239
[R_weapon_bone]
21 155.664093 0.002503 -0.000030 0.003487 0.001180 -90.988930 155.664078
22 155.664093 0.002503 -0.000030 0.003487 0.001180 -90.988930 155.664078
[R_front_hand01_01]
21 87.624611 14.231146 22.918642 -153.171539 -59.529896 60.052429 91.683487
22 87.624611 14.231146 22.918642 -151.324265 -58.950283 57.901733 91.683487
[R_front_hand02_01]
21 89.356956 14.367283 -19.491137 153.232147 57.885738 62.134083 92.579636
22 89.356956 14.367283 -19.491137 151.491165 57.310097 60.072716 92.579636
[R_front_hand03_01]
21 87.286232 -22.307278 -0.143439 0.154710 -0.427505 -74.818459 90.091743
22 87.286232 -22.307278 -0.143439 0.146114 -0.432116 -73.578285 90.091743
[R_front_hand01_02]
21 71.020905 0.000060 0.000119 0.002333 -0.000262 102.793381 71.020905
22 71.020905 0.000060 0.000119 0.002333 -0.000259 102.681435 71.020905
[R_front_hand02_02]
21 71.020844 -0.000030 -0.000119 0.002333 -0.000262 102.793381 71.020836
22 71.020844 -0.000030 -0.000119 0.002333 -0.000259 102.681435 71.020836
[R_front_hand03_02]
21 71.020905 0.000000 0.000030 0.002333 -0.000262 102.793381 71.020905
22 71.020905 0.000000 0.000030 0.002333 -0.000259 102.681435 71.020905
[null_rope01_connect]
21 328.732483 0.000000 -0.000238 -150.827118 -66.632378 -171.594223 328.732483
22 328.732483 0.000000 -0.000238 -147.014008 -66.887688 -171.125092 328.732483
[Rope1_Seg01]
21 0.000000 0.000000 0.000000 -11.620122 8.234978 177.155304 0.000000
22 0.000000 0.000000 0.000000 -12.745243 5.988303 175.909973 0.000000
[Rope1_Seg02]
21 139.999863 -0.000179 0.000000 1.984996 1.569422 5.254580 139.999863
22 139.999863 -0.000179 0.000000 2.354320 1.267369 6.640610 139.999863
[Rope1_Seg03]
21 139.999924 0.000060 -0.000060 4.107316 2.901589 8.673038 139.999924
22 139.999924 0.000060 -0.000060 5.322131 2.563522 11.101941 139.999924
[Rope1_Seg04]
21 139.999924 -0.000060 -0.000119 10.673652 5.594938 16.686127 139.999924
22 139.999924 -0.000060 -0.000119 14.234364 5.399069 19.825361 139.999924
[Rope1_Seg05]
21 139.999832 0.000119 -0.000060 24.868856 14.615762 24.820246 139.999832
22 139.999832 0.000119 -0.000060 26.833523 13.811042 23.291370 139.999832
[Rope1_Seg06]
21 139.999954 0.000119 -0.000060 22.610130 32.979733 15.162778 139.999954
22 139.999954 0.000119 -0.000060 23.905407 28.400883 14.588078 139.999954
[Rope1_Seg07]
21 139.999985 0.000060 0.000000 4.335251 21.621454 1.882970 139.999985
22 139.999985 0.000060 0.000000 6.514134 20.499327 2.112081 139.999985
[Rope1_Seg09]
21 121.602913 0.000119 -0.000089 -89.793175 -1.359789 0.847147 121.602913
22 121.602913 0.000119 -0.000089 -89.793175 -1.359789 0.847147 121.602913
[L_mid_hand01]
21 103.859421 1.038730 8.195221 124.908272 -64.325722 -32.698181 104.187431
22 103.859421 1.038730 8.195221 127.696304 -66.076569 -35.766647 104.187431
[L_mid_hand02]
21 105.572853 -4.139662 -10.864139 -165.192169 42.484795 -68.028908 106.211075
22 105.572853 -4.139662 -10.864139 -167.140015 43.006081 -70.902893 106.211075
[L_mid_hand03]
21 104.641464 17.579376 -3.913581 -7.308157 17.330336 70.609497 106.179977
22 104.641464 17.579376 -3.913581 -6.629649 17.597927 72.871582 106.179977
[null_rope02_connect]
21 328.732849 0.000179 -0.000119 -66.776932 32.705379 49.353745 328.732849
22 328.732849 0.000179 -0.000119 -61.844227 29.592829 48.590630 328.732849
[Rope2_Seg01]
21 0.000057 0.000076 0.000000 98.453773 -31.583775 46.552544 0.000095
22 0.000058 0.000072 0.000000 98.011734 -29.816338 46.849731 0.000093
[Rope2_Seg02]
21 139.999741 -0.000060 -0.000119 -0.698901 -7.424704 0.408814 139.999756
22 139.999741 -0.000060 -0.000119 -0.966402 -9.390094 0.125700 139.999756
[Rope2_Seg03]
21 140.000107 0.000030 0.000000 -3.807232 -18.607067 0.760988 140.000107
22 140.000107 0.000030 0.000000 -7.931628 -27.545319 -0.526612 140.000107
[Rope2_Seg04]
21 139.999802 0.000000 -0.000060 -52.510338 -48.572826 -2.717712 139.999802
22 139.999802 0.000000 -0.000060 -69.935692 -49.933876 -10.928443 139.999802
[Rope2_Seg05]
21 139.999985 -0.000060 0.000119 -63.355286 -23.632748 -30.858955 139.999985
22 139.999985 -0.000060 0.000119 -39.107136 -8.141861 -26.429966 139.999985
[Rope2_Seg06]
21 139.999893 -0.000030 -0.000119 -14.777022 11.615667 -23.181839 139.999893
22 139.999893 -0.000030 -0.000119 -12.416546 7.789654 -18.099648 139.999893
[Rope2_Seg07]
21 139.999893 0.000060 -0.000060 -2.724598 7.439144 -8.511478 139.999893
22 139.999893 0.000060 -0.000060 -3.072911 5.489429 -7.501203 139.999893
[Rope2_Seg09]
21 121.338966 0.000089 -0.000060 33.793236 -1.359788 -0.847141 121.338966
22 121.338966 0.000089 -0.000060 33.793236 -1.359788 -0.847141 121.338966
[R_mid_hand01]
21 104.680779 11.144459 -10.335981 -29.839331 38.782547 50.244728 105.778534
22 104.680779 11.144459 -10.335981 -26.991882 40.639965 54.704483 105.778534
[R_mid_hand02]
21 104.070427 2.443552 8.231699 65.096085 -53.911819 21.097559 104.424065
22 104.070427 2.443552 8.231699 62.577362 -57.416607 24.150816 104.424065
[R_mid_hand03]
21 106.028137 -11.221827 -5.996406 -172.771393 14.103964 -59.790871 106.788818
22 106.028137 -11.221827 -5.996406 -173.762726 14.561016 -63.787186 106.788818
[spine02]
21 129.756927 0.001550 0.000119 0.510413 -4.027509 -15.090856 129.756927
22 129.756927 0.001550 0.000119 0.501516 -4.028656 -14.977408 129.756927
[spine03]
21 78.613983 0.081558 -4.899006 1.988532 3.786154 17.836634 78.766518
22 78.613976 0.081562 -4.899006 1.982446 3.789320 17.757610 78.766510
[pelvis]
21 169.435242 0.051022 0.000000 -0.069668 -0.177997 16.840597 169.435257
22 169.435242 0.051022 0.000000 -0.069455 -0.178080 16.703104 169.435257
[null_rope03_connect]
21 -1.257226 -2.466202 137.391083 -178.618500 -85.336876 -104.965759 137.418976
22 -1.257226 -2.466202 137.391083 -178.294891 -85.543938 -101.179420 137.418976
[null_rope04_connect]
21 -1.259640 -2.480268 -137.844437 -178.618500 -85.336876 -104.965759 137.872513
22 -1.259640 -2.480268 -137.844437 -178.294891 -85.543938 -101.179420 137.872513
[Rope3_Seg01]
21 -0.000029 -0.000172 0.000000 -0.969380 -67.318451 -46.995003 0.000174
22 -0.000029 -0.000178 0.000000 1.069816 -65.034119 -49.390388 0.000181
[Rope3_Seg02]
21 139.999924 -0.000119 0.000060 -0.356520 -3.855461 12.075656 139.999924
22 139.999924 -0.000119 0.000060 -0.933140 -5.544949 14.888791 139.999924
[Rope3_Seg03]
21 139.999924 -0.000119 0.000119 -4.122246 -5.970004 20.129293 139.999924
22 139.999924 -0.000119 0.000119 -5.215606 -7.232490 20.773573 139.999924
[Rope3_Seg04]
21 139.999924 0.000119 0.000000 -11.807056 -6.754644 25.748207 139.999924
22 139.999924 0.000119 0.000000 -9.152318 -7.270853 19.275295 139.999924
[Rope3_Seg05]
21 139.999924 -0.000238 0.000060 -14.109303 -12.788119 13.646887 139.999924
22 139.999924 -0.000238 0.000060 -10.309013 -10.706342 11.683711 139.999924
[Rope3_Seg06]
21 139.999893 -0.000119 -0.000060 -7.575203 -12.424985 3.220754 139.999893
22 139.999893 -0.000119 -0.000060 -8.160319 -11.611654 6.466632 139.999893
[Rope3_Seg07]
21 139.999771 0.000060 -0.000119 -3.862040 -7.660033 2.383121 139.999771
22 139.999771 0.000060 -0.000119 -4.520690 -7.705988 3.873628 139.999771
[Rope3_Seg08]
21 139.999985 -0.000060 0.000000 -1.686438 -4.469060 1.146582 139.999985
22 139.999985 -0.000060 0.000000 -2.183428 -4.711611 1.967923 139.999985
[Rope3_Seg09]
21 90.185997 -0.000179 -0.000060 89.793228 -1.359877 -0.847183 90.185997
22 90.185997 -0.000179 -0.000060 89.793228 -1.359877 -0.847183 90.185997
[R_rear_hand01]
21 103.366196 -6.073594 -10.757982 -170.781677 22.979740 -56.828255 104.101845
22 103.366196 -6.073594 -10.757982 -172.436630 23.546103 -61.016525 104.101845
[R_rear_hand02]
21 100.509819 12.039542 -7.992327 -23.183130 31.959583 54.045361 101.543350
22 100.509819 12.039542 -7.992327 -20.870378 33.419476 58.329952 101.543350
[R_rear_hand03]
21 101.539970 5.215704 5.435467 79.632996 -56.564831 12.543679 101.819031
22 101.539970 5.215704 5.435467 78.426208 -60.383156 13.958281 101.819031
[Rope4_Seg01]
21 0.000010 0.000038 -0.000114 -44.869926 -51.788654 -172.682693 0.000121
22 0.000010 0.000038 -0.000114 -33.672615 -60.419472 176.686859 0.000121
[Rope4_Seg02]
21 139.999985 0.000060 0.000119 -2.924327 2.089768 9.067429 139.999985
22 139.999985 0.000060 0.000119 -1.662711 2.769131 8.504083 139.999985
[Rope4_Seg03]
21 139.999924 0.000000 -0.000238 -5.808958 2.228412 12.798594 139.999924
22 139.999924 0.000000 -0.000238 -3.679259 3.441094 11.923043 139.999924
[Rope4_Seg04]
21 139.999985 0.000000 0.000119 -10.140245 -5.999612 13.979402 139.999985
22 139.999985 0.000000 0.000119 -8.388710 -2.862819 14.945250 139.999985
[Rope4_Seg05]
21 139.999802 -0.000060 -0.000119 -9.721201 -0.380803 15.257376 139.999802
22 139.999802 -0.000060 -0.000119 -8.087962 -0.390568 13.811191 139.999802
[Rope4_Seg06]
21 139.999924 0.000000 0.000060 -31.806419 15.089155 35.422184 139.999924
22 139.999924 0.000000 0.000060 -19.219194 18.950115 27.668913 139.999924
[Rope4_Seg07]
21 139.999802 0.000000 0.000000 -42.839474 -4.655383 27.116184 139.999802
22 139.999802 0.000000 0.000000 -66.296562 9.264952 32.181812 139.999802
[Rope4_Seg08]
21 139.999924 0.000000 0.000119 -10.757497 -7.449321 4.946244 139.999924
22 139.999924 0.000000 0.000119 -16.814205 -9.047442 5.775653 139.999924
[Rope4_Seg09]
21 90.185791 0.000060 0.000060 -135.617828 2.228885 0.850567 90.185791
22 90.185791 0.000060 0.000060 -135.617828 2.228885 0.850567 90.185791
[L_rear_hand01]
21 101.696655 -8.392275 -7.654577 -16.229391 -35.681812 113.503822 102.329041
22 101.696655 -8.392275 -7.654577 -14.875780 -36.204914 111.195358 102.329041
[L_rear_hand02]
21 102.726799 -1.568258 5.773216 75.121292 67.292435 162.363373 102.900848
22 102.726799 -1.568258 5.773216 73.822166 69.166550 160.967651 102.900848
[L_rear_hand03]
21 104.552910 9.721220 -10.420293 -175.569016 -24.291685 -111.264969 105.519653
22 104.552910 9.721220 -10.420293 -176.448364 -24.423321 -109.138062 105.519653
